<svg width="468" height="288" viewBox="0 0 468 288" fill="none" xmlns="http://www.w3.org/2000/svg">
<circle cx="61.0362" cy="95.3498" r="58.1914" fill="#651FFF" stroke="#651FFF" stroke-width="4.31048"/>
<path d="M42.2999 148.739L40.391 148.613L40.0401 150.494C39.1288 155.379 38.6911 158.27 38.3232 163.803C37.8454 167.837 39.9088 171.002 43.0059 171.909C46.1545 172.832 49.5105 171.165 50.9119 167.402C53.6315 161.343 54.6718 158.023 56.3487 152.289L57.1032 149.709L54.4212 149.533L42.2999 148.739Z" fill="#D7B490" stroke="#D7B490" stroke-width="4.31048"/>
<path d="M79.7727 47.2614L81.6815 47.3866L82.0324 45.506C82.9437 40.6211 83.3814 37.73 83.7493 32.1974C84.2272 28.1629 82.1638 24.998 79.0666 24.0905C75.918 23.168 72.562 24.8347 71.1606 28.5985C68.441 34.6574 67.4007 37.9775 65.7238 43.7109L64.9693 46.2907L67.6513 46.4666L79.7727 47.2614Z" fill="#D7B490" stroke="#D7B490" stroke-width="4.31048"/>
<path d="M101.55 71.3266L101.559 71.294L101.566 71.2612C103.734 61.4816 102.09 53.8006 97.0666 47.9491C92.1532 42.2263 84.2731 38.5787 74.6609 36.1308C66.057 33.9397 57.5857 32.8574 50.3959 35.1883C42.9919 37.5886 37.3727 43.4525 34.2336 54.1005C31.7915 62.3843 34.0079 70.1458 39.1039 76.3313C44.1599 82.4684 52.0357 87.0651 61.1017 89.3739C71.8468 92.1103 80.9837 91.4114 87.98 88.0478C95.0087 84.6687 99.675 78.6907 101.55 71.3266Z" fill="#F48FB1" stroke="#F48FB1" stroke-width="4.31048"/>
<path d="M93.8008 107.293L93.8091 107.261L93.8164 107.228C95.9841 97.4481 94.3409 89.7671 89.3171 83.9156C84.4037 78.1928 76.5236 74.5452 66.9114 72.0973C58.3075 69.9062 49.8362 68.8239 42.6464 71.1548C35.2424 73.5551 29.6231 79.4189 26.4841 90.067C24.0419 98.3508 26.2584 106.112 31.3543 112.298C36.4104 118.435 44.2862 123.032 53.3522 125.34C64.0973 128.077 73.2342 127.378 80.2304 124.014C87.2592 120.635 91.9255 114.657 93.8008 107.293Z" fill="#FFEB3B" stroke="#FFEB3B" stroke-width="4.31048"/>
<path d="M85.8365 141.865L85.8448 141.832L85.8521 141.799C88.0197 132.02 86.3766 124.339 81.3527 118.487C76.4393 112.764 68.5593 109.117 58.947 106.669C50.3431 104.478 41.8718 103.395 34.682 105.726C27.278 108.127 21.6588 113.99 18.5197 124.638C16.0776 132.922 18.294 140.684 23.39 146.869C28.4461 153.006 36.3219 157.603 45.3879 159.912C56.1329 162.648 65.2698 161.949 72.2661 158.586C79.2948 155.207 83.9611 149.229 85.8365 141.865Z" fill="#81C784" stroke="#81C784" stroke-width="4.31048"/>
<path d="M203.936 49.24V65.152C198.68 53.992 188.888 47.08 175.136 47.08C154.256 47.08 142.448 65.08 142.448 87.976C142.448 111.304 154.256 129.16 176.288 129.16C188.816 129.16 198.032 122.464 203.36 112.024V122.68C203.36 145.72 197.312 157.528 176.432 157.528C166.784 157.528 156.416 153.496 151.232 142.84L145.904 146.44C152.96 159.544 165.2 163.72 176.432 163.72C196.448 163.72 206.528 154.936 208.832 136.072C209.407 131.752 209.552 127.432 209.552 122.68V49.24H203.936ZM176.288 123.112C158.288 123.112 148.928 107.992 148.928 87.976C148.928 68.104 157.712 53.128 176.288 53.128C194.432 53.128 203.936 67.672 203.936 87.976C203.936 107.992 194.576 123.112 176.288 123.112ZM260.984 129.16C283.88 129.16 296.552 112.6 296.552 87.976C296.552 63.928 284.168 47.08 260.984 47.08C238.376 47.08 225.416 63.496 225.416 87.976C225.416 112.168 237.944 129.16 260.984 129.16ZM260.984 123.112C241.832 123.112 231.896 109.144 231.896 87.976C231.896 67.528 241.256 53.128 260.984 53.128C280.424 53.128 290.072 66.808 290.072 87.976C290.072 108.856 280.568 123.112 260.984 123.112ZM343.672 129.16C366.568 129.16 379.24 112.6 379.24 87.976C379.24 63.928 366.856 47.08 343.672 47.08C321.064 47.08 308.104 63.496 308.104 87.976C308.104 112.168 320.632 129.16 343.672 129.16ZM343.672 123.112C324.52 123.112 314.584 109.144 314.584 87.976C314.584 67.528 323.944 53.128 343.672 53.128C363.112 53.128 372.76 66.808 372.76 87.976C372.76 108.856 363.256 123.112 343.672 123.112ZM451.847 23.32V64.288C446.447 53.632 436.871 47.08 423.479 47.08C402.599 47.08 390.791 65.08 390.791 87.976C390.791 111.304 402.599 129.16 424.631 129.16C437.663 129.16 447.095 121.96 452.279 110.872V127H457.895V23.32H451.847ZM424.631 123.112C406.631 123.112 397.271 107.992 397.271 87.976C397.271 68.104 406.055 53.128 424.631 53.128C442.775 53.128 452.279 67.672 452.279 87.976C452.279 107.992 442.919 123.112 424.631 123.112ZM43.7963 271H57.3323L74.9003 217.504L92.5403 271H106.076L129.836 193.24H112.844L97.5803 243.136L82.2443 193.24H67.6283L52.2203 243.136L37.0283 193.24L20.0363 193.096L43.7963 271ZM154.274 236.944H210.578C212.594 208.936 198.482 191.08 174.362 191.08C151.466 191.08 135.698 207.496 135.698 232.984C135.698 256.6 151.754 273.16 175.37 273.16C190.346 273.16 203.738 265.096 209.714 250.984L192.578 245.8C189.194 253 182.858 256.888 174.362 256.888C162.554 256.888 155.642 249.76 154.274 236.944ZM175.082 206.272C185.81 206.272 191.498 211.672 192.938 223.84H154.706C156.722 212.32 163.418 206.272 175.082 206.272ZM240.899 236.944H297.203C299.219 208.936 285.107 191.08 260.987 191.08C238.091 191.08 222.323 207.496 222.323 232.984C222.323 256.6 238.379 273.16 261.995 273.16C276.971 273.16 290.363 265.096 296.339 250.984L279.203 245.8C275.819 253 269.483 256.888 260.987 256.888C249.179 256.888 242.267 249.76 240.899 236.944ZM261.707 206.272C272.435 206.272 278.123 211.672 279.563 223.84H241.331C243.347 212.32 250.043 206.272 261.707 206.272ZM349.988 191.08C342.212 191.08 335.804 193.24 330.62 197.056V167.32H313.124V271H328.46V265.24C334.004 270.28 341.42 273.16 350.636 273.16C372.164 273.16 386.132 255.448 386.132 232.12C386.132 208.504 372.02 191.08 349.988 191.08ZM347.972 257.608C334.004 257.608 328.46 247.168 328.46 232.12C328.46 216.928 334.148 206.632 347.396 206.632C361.364 206.632 367.772 218.008 367.772 232.12C367.772 246.376 361.508 257.608 347.972 257.608ZM430.198 273.16C450.214 273.16 462.31 263.656 462.31 248.032C462.31 235.936 455.542 229.816 436.894 224.992C418.678 220.384 415.654 218.656 415.654 214.12C415.654 208.936 421.126 205.768 429.262 206.128C437.686 206.632 443.086 210.592 444.022 217.216L461.734 214.048C459.79 200.08 447.118 191.08 428.974 191.08C410.47 191.08 398.374 200.44 398.374 214.984C398.374 226.648 405.214 232.48 424.726 237.592C442.294 242.272 444.526 243.568 444.526 248.824C444.526 254.584 439.702 258.112 431.422 258.112C421.918 258.112 415.294 253.432 413.566 245.728L395.854 248.464C398.446 264.16 410.974 273.16 430.198 273.16Z" fill="#010209"/>
</svg>
