<svg width="925" height="164" viewBox="0 0 925 164" fill="none" xmlns="http://www.w3.org/2000/svg">
<circle cx="61.0362" cy="81.3498" r="58.1914" fill="#BAB2F5" stroke="#8E80F4" stroke-width="4.31048"/>
<path d="M42.2999 134.739L40.391 134.613L40.0401 136.494C39.1288 141.379 38.6911 144.27 38.3232 149.803C37.8454 153.837 39.9088 157.002 43.0059 157.909C46.1545 158.832 49.5105 157.165 50.9119 153.402C53.6315 147.343 54.6718 144.023 56.3487 138.289L57.1032 135.709L54.4212 135.533L42.2999 134.739Z" fill="#F9EADA" stroke="#D7B490" stroke-width="4.31048"/>
<path d="M79.7727 33.2614L81.6815 33.3866L82.0324 31.506C82.9437 26.6211 83.3814 23.73 83.7493 18.1974C84.2272 14.1629 82.1638 10.998 79.0666 10.0905C75.918 9.16801 72.562 10.8347 71.1606 14.5985C68.441 20.6574 67.4007 23.9775 65.7238 29.7109L64.9693 32.2907L67.6513 32.4666L79.7727 33.2614Z" fill="#F9EADA" stroke="#D7B490" stroke-width="4.31048"/>
<path d="M101.55 57.3266L101.559 57.294L101.566 57.2612C103.734 47.4816 102.09 39.8006 97.0666 33.9491C92.1532 28.2263 84.2731 24.5787 74.6609 22.1308C66.057 19.9397 57.5857 18.8574 50.3959 21.1883C42.9919 23.5886 37.3727 29.4525 34.2336 40.1005C31.7915 48.3843 34.0079 56.1458 39.1039 62.3313C44.1599 68.4684 52.0357 73.0651 61.1017 75.3739C71.8468 78.1103 80.9837 77.4114 87.98 74.0478C95.0087 70.6687 99.675 64.6907 101.55 57.3266Z" fill="#FADEE1" stroke="#E8B7BC" stroke-width="4.31048"/>
<path d="M93.8008 93.2931L93.8091 93.2605L93.8164 93.2276C95.9841 83.4481 94.3409 75.7671 89.3171 69.9156C84.4037 64.1928 76.5236 60.5452 66.9114 58.0973C58.3075 55.9062 49.8362 54.8239 42.6464 57.1548C35.2424 59.5551 29.6231 65.4189 26.4841 76.067C24.0419 84.3508 26.2584 92.1122 31.3543 98.2978C36.4104 104.435 44.2862 109.032 53.3522 111.34C64.0973 114.077 73.2342 113.378 80.2304 110.014C87.2592 106.635 91.9255 100.657 93.8008 93.2931Z" fill="#FDF5C7" stroke="#E3BD78" stroke-width="4.31048"/>
<path d="M85.8365 127.865L85.8448 127.832L85.8521 127.799C88.0197 118.02 86.3766 110.339 81.3527 104.487C76.4393 98.7643 68.5593 95.1167 58.947 92.6688C50.3431 90.4777 41.8718 89.3955 34.682 91.7263C27.278 94.1266 21.6588 99.9905 18.5197 110.638C16.0776 118.922 18.294 126.684 23.39 132.869C28.4461 139.006 36.3219 143.603 45.3879 145.912C56.1329 148.648 65.2698 147.949 72.2661 144.586C79.2948 141.207 83.9611 135.229 85.8365 127.865Z" fill="#CAF0DA" stroke="#8DC59F" stroke-width="4.31048"/>
<path d="M209.67 49.24V65.152C204.414 53.992 194.622 47.08 180.87 47.08C159.99 47.08 148.182 65.08 148.182 87.976C148.182 111.304 159.99 129.16 182.022 129.16C194.55 129.16 203.766 122.464 209.094 112.024V122.68C209.094 145.72 203.046 157.528 182.166 157.528C172.518 157.528 162.15 153.496 156.966 142.84L151.638 146.44C158.694 159.544 170.934 163.72 182.166 163.72C202.182 163.72 212.262 154.936 214.566 136.072C215.142 131.752 215.286 127.432 215.286 122.68V49.24H209.67ZM182.022 123.112C164.022 123.112 154.662 107.992 154.662 87.976C154.662 68.104 163.446 53.128 182.022 53.128C200.166 53.128 209.67 67.672 209.67 87.976C209.67 107.992 200.31 123.112 182.022 123.112ZM266.719 129.16C289.615 129.16 302.287 112.6 302.287 87.976C302.287 63.928 289.903 47.08 266.719 47.08C244.111 47.08 231.151 63.496 231.151 87.976C231.151 112.168 243.679 129.16 266.719 129.16ZM266.719 123.112C247.567 123.112 237.631 109.144 237.631 87.976C237.631 67.528 246.991 53.128 266.719 53.128C286.159 53.128 295.807 66.808 295.807 87.976C295.807 108.856 286.303 123.112 266.719 123.112ZM349.406 129.16C372.302 129.16 384.974 112.6 384.974 87.976C384.974 63.928 372.59 47.08 349.406 47.08C326.798 47.08 313.838 63.496 313.838 87.976C313.838 112.168 326.366 129.16 349.406 129.16ZM349.406 123.112C330.254 123.112 320.318 109.144 320.318 87.976C320.318 67.528 329.678 53.128 349.406 53.128C368.846 53.128 378.494 66.808 378.494 87.976C378.494 108.856 368.99 123.112 349.406 123.112ZM457.582 23.32V64.288C452.182 53.632 442.606 47.08 429.214 47.08C408.334 47.08 396.526 65.08 396.526 87.976C396.526 111.304 408.334 129.16 430.366 129.16C443.398 129.16 452.83 121.96 458.014 110.872V127H463.63V23.32H457.582ZM430.366 123.112C412.366 123.112 403.006 107.992 403.006 87.976C403.006 68.104 411.79 53.128 430.366 53.128C448.51 53.128 458.014 67.672 458.014 87.976C458.014 107.992 448.654 123.112 430.366 123.112ZM500.374 127H513.91L531.478 73.504L549.118 127H562.654L586.414 49.24H569.422L554.158 99.136L538.822 49.24H524.206L508.798 99.136L493.606 49.24L476.614 49.096L500.374 127ZM610.852 92.944H667.156C669.172 64.936 655.06 47.08 630.94 47.08C608.044 47.08 592.276 63.496 592.276 88.984C592.276 112.6 608.332 129.16 631.948 129.16C646.924 129.16 660.316 121.096 666.292 106.984L649.156 101.8C645.772 109 639.436 112.888 630.94 112.888C619.132 112.888 612.22 105.76 610.852 92.944ZM631.66 62.272C642.388 62.272 648.076 67.672 649.516 79.84H611.284C613.3 68.32 619.996 62.272 631.66 62.272ZM697.477 92.944H753.781C755.797 64.936 741.685 47.08 717.565 47.08C694.669 47.08 678.901 63.496 678.901 88.984C678.901 112.6 694.957 129.16 718.573 129.16C733.549 129.16 746.941 121.096 752.917 106.984L735.781 101.8C732.397 109 726.061 112.888 717.565 112.888C705.757 112.888 698.845 105.76 697.477 92.944ZM718.285 62.272C729.013 62.272 734.701 67.672 736.141 79.84H697.909C699.925 68.32 706.621 62.272 718.285 62.272ZM806.566 47.08C798.79 47.08 792.382 49.24 787.198 53.056V23.32H769.702V127H785.038V121.24C790.582 126.28 797.998 129.16 807.214 129.16C828.742 129.16 842.71 111.448 842.71 88.12C842.71 64.504 828.598 47.08 806.566 47.08ZM804.55 113.608C790.582 113.608 785.038 103.168 785.038 88.12C785.038 72.928 790.726 62.632 803.974 62.632C817.942 62.632 824.35 74.008 824.35 88.12C824.35 102.376 818.086 113.608 804.55 113.608ZM886.776 129.16C906.792 129.16 918.888 119.656 918.888 104.032C918.888 91.936 912.12 85.816 893.472 80.992C875.256 76.384 872.232 74.656 872.232 70.12C872.232 64.936 877.704 61.768 885.84 62.128C894.264 62.632 899.664 66.592 900.6 73.216L918.312 70.048C916.368 56.08 903.696 47.08 885.552 47.08C867.048 47.08 854.952 56.44 854.952 70.984C854.952 82.648 861.792 88.48 881.304 93.592C898.872 98.272 901.104 99.568 901.104 104.824C901.104 110.584 896.28 114.112 888 114.112C878.496 114.112 871.872 109.432 870.144 101.728L852.432 104.464C855.024 120.16 867.552 129.16 886.776 129.16Z" fill="#010209"/>
</svg>
