<svg width="672" height="851" viewBox="0 0 672 851" fill="none" xmlns="http://www.w3.org/2000/svg">
<circle cx="336" cy="411.128" r="324" fill="#651FFF" stroke="#651FFF" stroke-width="24"/>
<path d="M231.679 708.387L221.051 707.691L219.097 718.161C214.023 745.359 211.586 761.457 209.537 792.261C206.877 814.725 218.366 832.346 235.61 837.399C253.141 842.535 271.827 833.255 279.629 812.3C294.771 778.564 300.564 760.079 309.901 728.156L314.101 713.792L299.168 712.813L231.679 708.387Z" fill="#D7B490" stroke="#D7B490" stroke-width="24"/>
<path d="M440.321 143.38L450.949 144.077L452.903 133.606C457.977 106.408 460.414 90.3107 462.463 59.5062C465.123 37.0428 453.634 19.421 436.39 14.3685C418.859 9.23204 400.173 18.5121 392.371 39.4678C377.229 73.2031 371.436 91.6886 362.099 123.612L357.899 137.975L372.832 138.954L440.321 143.38Z" fill="#D7B490" stroke="#D7B490" stroke-width="24"/>
<path d="M561.576 277.371L561.622 277.189L561.663 277.006C573.732 222.556 564.583 179.789 536.612 147.209C509.255 115.345 465.38 95.0359 411.86 81.4064C363.955 69.2068 316.789 63.181 276.757 76.1588C235.533 89.5233 204.246 122.172 186.768 181.459C173.171 227.581 185.511 270.796 213.885 305.236C242.036 339.406 285.887 365 336.365 377.855C396.192 393.091 447.065 389.199 486.019 370.472C525.153 351.657 551.134 318.373 561.576 277.371Z" fill="#F48FB1" stroke="#F48FB1" stroke-width="24"/>
<path d="M518.427 477.626L518.473 477.445L518.514 477.262C530.583 422.811 521.434 380.044 493.462 347.464C466.106 315.601 422.231 295.291 368.711 281.662C320.806 269.462 273.64 263.436 233.608 276.414C192.384 289.779 161.097 322.428 143.619 381.714C130.022 427.837 142.362 471.051 170.736 505.491C198.887 539.661 242.738 565.255 293.216 578.11C353.043 593.346 403.915 589.455 442.87 570.727C482.004 551.913 507.985 518.628 518.427 477.626Z" fill="#FFEB3B" stroke="#FFEB3B" stroke-width="24"/>
<path d="M474.084 670.115L474.13 669.933L474.171 669.75C486.24 615.299 477.091 572.532 449.119 539.952C421.762 508.089 377.887 487.779 324.368 474.15C276.463 461.95 229.296 455.925 189.265 468.902C148.041 482.267 116.754 514.916 99.2758 574.202C85.6785 620.325 98.0192 663.54 126.393 697.979C154.544 732.15 198.395 757.743 248.873 770.598C308.7 785.834 359.572 781.943 398.526 763.215C437.661 744.401 463.642 711.116 474.084 670.115Z" fill="#81C784" stroke="#81C784" stroke-width="24"/>
</svg>
